HIERARCHY
ROOT Hips
{
	OFFSET -0.179506 -22.333345 2.821913
	CHANNELS 6 Xposition Yposition Zposition Zrotation Yrotation Xrotation 
	JOINT LeftUpLeg
	{
		OFFSET 6.951974 -9.140623 -0.681533
		CHANNELS 3 Zrotation Yrotation Xrotation
		JOINT LeftLeg
		{
			OFFSET 3.427654 -37.519855 -0.449580
			CHANNELS 3 Zrotation Yrotation Xrotation
			JOINT LeftFoot
			{
				OFFSET -1.359570 -39.796059 -4.369333
				CHANNELS 3 Zrotation Yrotation Xrotation
				JOINT LeftToe
				{
					OFFSET 2.635814 -5.579078 11.928840
					CHANNELS 3 Zrotation Yrotation Xrotation
					End Site
					{
						OFFSET 0.000000 0.000000 0.000000
					}
				}
			}
		}
	}
	JOINT RightUpLeg
	{
		OFFSET -6.767048 -9.052170 -0.431982
		CHANNELS 3 Zrotation Yrotation Xrotation
		JOINT RightLeg
		{
			OFFSET -3.829005 -38.256897 -0.885003
			CHANNELS 3 Zrotation Yrotation Xrotation
			JOINT RightFoot
			{
				OFFSET 1.577377 -39.841461 -4.231180
				CHANNELS 3 Zrotation Yrotation Xrotation
				JOINT RightToe
				{
					OFFSET -2.537174 -4.814398 12.334795
					CHANNELS 3 Zrotation Yrotation Xrotation
					End Site
					{
						OFFSET 0.000000 0.000000 0.000000
					}
				}
			}
		}
	}
	JOINT Spine
	{
		OFFSET -0.253288 10.896323 -2.669631
		CHANNELS 3 Zrotation Yrotation Xrotation
		JOINT Spine1
		{
			OFFSET 0.548704 13.518043 0.109247
			CHANNELS 3 Zrotation Yrotation Xrotation
			JOINT Spine2
			{
				OFFSET 0.145701 5.292222 2.542457
				CHANNELS 3 Zrotation Yrotation Xrotation
				JOINT Neck
				{
					OFFSET -0.277840 21.387037 -4.285703
					CHANNELS 3 Zrotation Yrotation Xrotation
					JOINT Head
					{
						OFFSET 0.515184 6.496960 5.134897
						CHANNELS 3 Zrotation Yrotation Xrotation
						End Site
						{
							OFFSET 0.000000 0.000000 0.000000
						}
					}
				}
				JOINT LeftShoulder
				{
					OFFSET 7.884473 12.174932 -3.408961
					CHANNELS 3 Zrotation Yrotation Xrotation
					JOINT LeftArm
					{
						OFFSET 9.097692 3.046888 -0.886815
						CHANNELS 3 Zrotation Yrotation Xrotation
						JOINT LeftForeArm
						{
							OFFSET 25.961220 -1.277207 -2.745643
							CHANNELS 3 Zrotation Yrotation Xrotation
							JOINT LeftHand
							{
								OFFSET 24.923361 0.898606 -0.117091
								CHANNELS 3 Zrotation Yrotation Xrotation
								End Site
								{
									OFFSET 0.000000 0.000000 0.000000
								}
							}
						}
					}
				}
				JOINT RightShoulder
				{
					OFFSET -8.175920 11.883285 -3.861528
					CHANNELS 3 Zrotation Yrotation Xrotation
					JOINT RightArm
					{
						OFFSET -9.601238 3.255117 -0.914307
						CHANNELS 3 Zrotation Yrotation Xrotation
						JOINT RightForeArm
						{
							OFFSET -25.374195 -1.332924 -2.140099
							CHANNELS 3 Zrotation Yrotation Xrotation
							JOINT RightHand
							{
								OFFSET -25.529810 0.777228 -0.555919
								CHANNELS 3 Zrotation Yrotation Xrotation
								End Site
								{
									OFFSET 0.000000 0.000000 0.000000
								}
							}
						}
					}
				}
			}
		}
	}
}
MOTION
Frames: 10
Frame Time: 0.033333
-16.472794 16.992708 97.299614 -178.706326 1.640939 86.382479 4.961269 6.926766 5.788594 -2.506520 -7.405383 0.645395 -1.175443 15.697905 -10.707927 nan nan nan -2.083873 -6.711636 7.120935 2.767316 8.123362 -4.626292 2.783872 -11.332009 -8.556558 nan nan nan 1.227701 2.361881 1.500535 1.642074 -2.746754 5.977073 0.812816 2.247101 -4.718869 1.521921 1.946576 12.028135 3.194121 -2.540124 -3.891972 11.343109 0.887523 -7.483921 -10.186296 -16.862743 -10.776487 11.030197 -2.472556 -7.123329 -23.590930 -14.777736 8.104991 -14.461325 1.353030 -5.750727 2.708130 9.301447 -16.080107 -9.444969 -1.161217 -8.411788 21.169248 7.895698 4.623223 
-16.472738 16.992868 97.299561 -178.706431 1.641113 86.382703 4.961613 6.926768 5.788330 -2.506814 -7.405237 0.645881 -1.175328 15.697702 -10.708382 nan nan nan -2.083716 -6.711626 7.120903 2.767470 8.123122 -4.626408 2.783791 -11.331961 -8.556711 nan nan nan 1.227497 2.361932 1.500339 1.642221 -2.746699 5.977043 0.812794 2.247006 -4.719269 1.522554 1.946970 12.027877 3.193845 -2.540529 -3.890387 11.343102 0.888313 -7.484301 -10.186110 -16.863432 -10.776140 11.030416 -2.472724 -7.122850 -23.591064 -14.778602 8.105743 -14.460820 1.352834 -5.750861 2.707954 9.302185 -16.079757 -9.445225 -1.161603 -8.411431 21.168661 7.896099 4.623513 
-16.472729 16.992908 97.299553 -178.706464 1.641156 86.382750 4.961687 6.926778 5.788283 -2.506877 -7.405190 0.645993 -1.175296 15.697668 -10.708491 nan nan nan -2.083685 -6.711626 7.120903 2.767521 8.123080 -4.626386 2.783759 -11.331949 -8.556768 nan nan nan 1.227457 2.361945 1.500282 1.642262 -2.746676 5.977058 0.812790 2.246979 -4.719375 1.522704 1.946996 12.027761 3.193713 -2.540667 -3.889994 11.343105 0.888524 -7.484400 -10.186100 -16.863625 -10.776016 11.030486 -2.472774 -7.122749 -23.591066 -14.778758 8.105884 -14.460722 1.352781 -5.750909 2.707930 9.302410 -16.079615 -9.445263 -1.161721 -8.411399 21.168429 7.896179 4.623383 
-16.472723 16.992949 97.299538 -178.706490 1.641199 86.382798 4.961761 6.926789 5.788228 -2.506935 -7.405140 0.646113 -1.175262 15.697628 -10.708591 nan nan nan -2.083650 -6.711630 7.120904 2.767556 8.123062 -4.626366 2.783731 -11.331934 -8.556811 nan nan nan 1.227423 2.361962 1.500231 1.642302 -2.746654 5.977064 0.812789 2.246944 -4.719484 1.522851 1.947005 12.027621 3.193569 -2.540806 -3.889594 11.343093 0.888729 -7.484494 -10.186086 -16.863830 -10.775902 11.030543 -2.472839 -7.122686 -23.590985 -14.778886 8.106000 -14.460644 1.352712 -5.750948 2.707922 9.302614 -16.079522 -9.445244 -1.161797 -8.411558 21.168124 7.896297 4.623144 
-16.472721 16.992975 97.299530 -178.706495 1.641221 86.382818 4.961805 6.926794 5.788200 -2.506972 -7.405120 0.646188 -1.175240 15.697592 -10.708668 nan nan nan -2.083631 -6.711634 7.120918 2.767569 8.123044 -4.626369 2.783711 -11.331921 -8.556843 nan nan nan 1.227404 2.361968 1.500219 1.642322 -2.746648 5.977060 0.812788 2.246917 -4.719543 1.522941 1.947023 12.027562 3.193489 -2.540882 -3.889412 11.343082 0.888857 -7.484551 -10.186100 -16.863948 -10.775860 11.030603 -2.472880 -7.122681 -23.590939 -14.778953 8.106074 -14.460617 1.352657 -5.750972 2.707961 9.302724 -16.079475 -9.445254 -1.161808 -8.411652 21.167978 7.896382 4.623002 
-16.472719 16.992985 97.299530 -178.706496 1.641227 86.382825 4.961819 6.926797 5.788193 -2.506985 -7.405114 0.646208 -1.175236 15.697579 -10.708691 nan nan nan -2.083627 -6.711637 7.120923 2.767574 8.123036 -4.626373 2.783704 -11.331919 -8.556852 nan nan nan 1.227399 2.361968 1.500212 1.642326 -2.746646 5.977059 0.812786 2.246911 -4.719559 1.522967 1.947028 12.027545 3.193468 -2.540906 -3.889360 11.343077 0.888895 -7.484569 -10.186098 -16.863982 -10.775847 11.030617 -2.472894 -7.122685 -23.590930 -14.778974 8.106094 -14.460608 1.352641 -5.750978 2.707971 9.302751 -16.079461 -9.445254 -1.161802 -8.411686 21.167940 7.896407 4.622958 
-16.472719 16.992994 97.299530 -178.706499 1.641234 86.382830 4.961834 6.926801 5.788189 -2.506999 -7.405107 0.646225 -1.175234 15.697566 -10.708714 nan nan nan -2.083623 -6.711640 7.120931 2.767580 8.123028 -4.626380 2.783698 -11.331919 -8.556858 nan nan nan 1.227396 2.361969 1.500205 1.642329 -2.746643 5.977059 0.812783 2.246904 -4.719574 1.522994 1.947031 12.027529 3.193448 -2.540932 -3.889307 11.343069 0.888935 -7.484588 -10.186091 -16.864018 -10.775831 11.030627 -2.472907 -7.122685 -23.590925 -14.778997 8.106121 -14.460594 1.352627 -5.750982 2.707977 9.302777 -16.079443 -9.445259 -1.161795 -8.411709 21.167902 7.896426 4.622918 
-16.472719 16.992998 97.299530 -178.706499 1.641236 86.382834 4.961839 6.926802 5.788185 -2.507004 -7.405104 0.646232 -1.175233 15.697562 -10.708721 nan nan nan -2.083620 -6.711640 7.120933 2.767581 8.123027 -4.626386 2.783696 -11.331920 -8.556856 nan nan nan 1.227395 2.361969 1.500201 1.642331 -2.746642 5.977058 0.812782 2.246902 -4.719581 1.523004 1.947033 12.027523 3.193441 -2.540940 -3.889281 11.343066 0.888949 -7.484595 -10.186088 -16.864032 -10.775824 11.030633 -2.472912 -7.122681 -23.590927 -14.779006 8.106131 -14.460587 1.352623 -5.750983 2.707976 9.302789 -16.079433 -9.445264 -1.161795 -8.411703 21.167891 7.896427 4.622912 
-16.472719 16.993000 97.299530 -178.706499 1.641239 86.382837 4.961844 6.926801 5.788181 -2.507009 -7.405101 0.646241 -1.175229 15.697560 -10.708726 nan nan nan -2.083618 -6.711640 7.120935 2.767582 8.123024 -4.626387 2.783693 -11.331923 -8.556858 nan nan nan 1.227393 2.361969 1.500198 1.642332 -2.746642 5.977055 0.812781 2.246900 -4.719585 1.523015 1.947035 12.027518 3.193436 -2.540946 -3.889255 11.343065 0.888964 -7.484602 -10.186087 -16.864045 -10.775817 11.030639 -2.472917 -7.122678 -23.590931 -14.779012 8.106138 -14.460579 1.352618 -5.750983 2.707974 9.302804 -16.079423 -9.445270 -1.161797 -8.411690 21.167885 7.896422 4.622908 
-16.472719 16.993002 97.299530 -178.706499 1.641239 86.382838 4.961845 6.926801 5.788181 -2.507009 -7.405101 0.646242 -1.175229 15.697559 -10.708727 nan nan nan -2.083617 -6.711640 7.120935 2.767582 8.123024 -4.626387 2.783693 -11.331923 -8.556859 nan nan nan 1.227393 2.361969 1.500198 1.642333 -2.746642 5.977054 0.812781 2.246900 -4.719586 1.523017 1.947035 12.027517 3.193434 -2.540947 -3.889251 11.343065 0.888967 -7.484603 -10.186087 -16.864047 -10.775816 11.030640 -2.472918 -7.122678 -23.590931 -14.779013 8.106139 -14.460578 1.352617 -5.750984 2.707974 9.302806 -16.079421 -9.445271 -1.161797 -8.411688 21.167883 7.896422 4.622907 
